# Blender v2.80 (sub 50) OBJ File: ''
# www.blender.org
mtllib 0.01.mtl
o Plane
v -1.000000 0.000000 0.009189
v -0.011668 0.000000 1.000000
v 0.479370 0.000000 1.000000
v 1.000000 0.000000 0.614258
v 1.000000 0.000000 -0.734985
v 0.445679 0.000000 -1.000000
v -0.010720 0.000000 -1.000000
v -0.240723 0.000000 -1.000000
v -0.573686 0.000000 0.922360
v -0.396709 0.000000 0.939113
v 0.949662 0.000000 0.837093
v -0.724163 0.000000 0.696988
v 0.050584 0.000000 0.493774
v 1.000000 0.000000 0.428223
v 0.454997 0.000000 0.392388
v 0.265899 0.000000 0.349481
v 0.909977 0.000000 0.358191
v -0.685191 0.000000 0.109040
v 0.895469 0.000000 0.035135
v 0.700682 0.000000 -0.041162
v 0.551737 0.000000 -0.549445
v 0.549868 0.000000 -0.790264
v -1.000000 0.000000 -0.864014
v -1.000000 0.000000 -0.678223
v -1.000000 0.000000 -0.473511
v -1.000000 0.000000 -0.320068
v -1.000000 0.000000 -0.175293
v -1.000000 0.000000 -0.011571
v -1.000000 0.000000 0.136985
v -1.000000 0.000000 0.362305
v -1.000000 0.000000 0.558594
v -1.000000 0.000000 0.699219
v -1.000000 0.000000 0.866943
v -1.000000 0.000000 1.000000
v -0.745361 0.000000 1.000000
v -0.558594 0.000000 1.000000
v -0.415039 0.000000 1.000000
v -0.237793 0.000000 1.000000
v 0.243408 0.000000 1.000000
v 0.710449 0.000000 1.000000
v 0.869873 0.000000 1.000000
v 1.000000 0.000000 1.000000
v 1.000000 0.000000 0.806519
v 1.000000 0.000000 0.268555
v 1.000000 0.000000 0.110285
v 1.000000 0.000000 0.000000
v 1.000000 0.000000 -0.111994
v 1.000000 0.000000 -0.282227
v 1.000000 0.000000 -0.420654
v 1.000000 0.000000 -0.571533
v 1.000000 0.000000 -1.000000
v 0.697266 0.000000 -1.000000
v 0.252197 0.000000 -1.000000
v 0.011798 0.000000 -1.000000
v -0.428223 0.000000 -1.000000
v -0.608399 0.000000 -1.000000
v -0.806519 0.000000 -1.000000
v -1.000000 0.000000 -1.000000
v 0.453656 0.000000 0.923889
v 0.011026 0.000000 1.000000
v -0.751286 0.000000 0.877008
v -0.891520 0.000000 0.839614
v -0.115225 0.000000 0.880062
v 0.107944 0.000000 0.800096
v -0.567708 0.000000 0.791221
v 0.370276 0.000000 0.751615
v 0.807305 0.000000 0.731514
v -0.243800 0.000000 0.738213
v 0.229635 0.000000 0.650145
v 0.262134 0.000000 0.501344
v 0.950828 0.000000 0.648439
v 0.862216 0.000000 0.525823
v -0.748748 0.000000 0.526885
v -0.552531 0.000000 0.412666
v -0.742371 0.000000 0.394949
v -0.153246 0.000000 0.371100
v -0.909857 0.000000 0.340721
v 0.358704 0.000000 0.240123
v -0.375296 0.000000 0.197996
v 0.899633 0.000000 0.205710
v -0.894888 0.000000 0.160916
v 0.313094 0.000000 0.084942
v -0.231907 0.000000 -0.071074
v -0.042498 0.000000 -0.013172
v 0.453006 0.000000 0.030230
v 0.304967 0.000000 -0.093888
v 0.515284 0.000000 -0.111627
v -0.115487 0.000000 -0.183855
v 0.058066 0.000000 -0.159718
v -0.717103 0.000000 -0.232869
v 0.603468 0.000000 -0.220341
v -0.898216 0.000000 -0.293338
v 0.253708 0.000000 -0.224974
v -0.333152 0.000000 -0.364767
v 0.712103 0.000000 -0.408792
v -0.475129 0.000000 -0.451085
v 0.427435 0.000000 -0.474852
v 0.185529 0.000000 -0.546726
v -0.500091 0.000000 -0.658831
v 0.905690 0.000000 -0.480515
v -0.376606 0.000000 -0.548800
v -0.269339 0.000000 -0.662106
v -0.823233 0.000000 -0.663887
v 0.272217 0.000000 -0.727587
v 0.879469 0.000000 -0.666439
v -0.359867 0.000000 -0.772235
v 0.103287 0.000000 -0.707929
v -0.958550 0.000000 -0.775292
v 0.944504 0.000000 -0.834167
v 0.058870 0.000000 -0.844608
v -0.222516 0.000000 -0.943999
v -0.088933 0.000000 -0.847013
v -0.793276 0.000000 -0.967921
v 0.689972 0.000000 0.911756
v -0.235648 0.000000 0.943748
v -0.062450 0.000000 0.699159
v -0.374823 0.000000 0.752715
v 0.571056 0.000000 0.702400
v -0.885968 0.000000 0.683062
v -0.371028 0.000000 0.562107
v -0.177841 0.000000 0.535076
v 0.657846 0.000000 0.551491
v 0.686585 0.000000 0.408610
v -0.892437 0.000000 0.487372
v -0.355431 0.000000 0.349983
v -0.726230 0.000000 0.253413
v -0.515593 0.000000 0.268242
v -0.232611 0.000000 0.153243
v 0.148225 0.000000 0.274723
v 0.494376 0.000000 0.198638
v 0.680242 0.000000 0.219905
v 0.035908 0.000000 0.145962
v 0.599496 0.000000 0.050006
v -0.435023 0.000000 0.069794
v -0.620030 0.000000 -0.049790
v -0.781536 0.000000 -0.065508
v -0.395849 0.000000 -0.162634
v -0.273260 0.000000 -0.246202
v 0.126750 0.000000 -0.342519
v 0.435401 0.000000 -0.277985
v 0.885218 0.000000 -0.330188
v -0.042324 0.000000 -0.442539
v 0.318180 0.000000 -0.380923
v 0.569147 0.000000 -0.360871
v -0.243432 0.000000 -0.515255
v -0.733582 0.000000 -0.504643
v 0.721445 0.000000 -0.636004
v -0.632391 0.000000 -0.689118
v -0.056499 0.000000 -0.634112
v 0.426365 0.000000 -0.691258
v -0.231098 0.000000 -0.798900
v 0.737877 0.000000 -0.872967
v 0.189140 0.000000 -0.899225
v 0.373300 0.000000 -0.891049
v -0.544795 0.000000 -0.844090
v 0.583686 0.000000 -0.936288
v 0.215810 0.000000 0.937873
v 0.832916 0.000000 0.946631
v 0.950130 0.000000 -0.161686
v 0.857566 0.000000 -0.953119
v -0.944143 0.000000 -0.533738
v -0.076347 0.000000 0.228375
v -0.564145 0.000000 -0.275931
v -0.186219 0.000000 -0.370107
v -0.425096 0.000000 -0.920465
v -0.630199 0.000000 -0.956107
v 0.442207 0.000000 0.582148
v -0.538568 0.000000 0.623964
v 0.147219 0.000000 0.054510
v 0.804804 0.000000 -0.187979
v -0.764955 0.000000 -0.832350
vt 0.127584 0.000000
vt 0.213282 0.038820
vt 0.124378 0.061496
vt 0.221029 -0.000000
vt 0.292603 -0.000000
vt 0.381104 -0.000000
vt 0.301652 0.030443
vt 0.494166 0.000000
vt 0.505513 0.000000
vt 0.442388 0.059969
vt 0.216146 0.104389
vt 0.312588 0.123643
vt 0.916458 0.026685
vt 0.903653 0.134243
vt 0.844986 0.044122
vt 0.685138 0.124193
vt 0.553972 0.099952
vt 0.607905 0.031064
vt 0.054240 0.080261
vt 0.057016 0.158431
vt 0.137919 0.151506
vt -0.000000 0.150254
vt 0.053782 0.256314
vt -0.000000 0.220703
vt 0.828923 0.224254
vt 0.785528 0.148800
vt -0.000000 0.318922
vt 1.000000 0.285952
vt 0.931108 0.237088
vt 1.000000 0.193075
vt 0.314486 0.218946
vt 0.411079 0.232462
vt 0.322285 0.325009
vt 0.045071 0.329640
vt 0.128814 0.302526
vt 0.242204 0.365879
vt 0.223735 0.293667
vt 0.525292 0.253113
vt 0.574112 0.362639
vt 0.461827 0.385813
vt 0.631067 0.249328
vt 0.632949 0.325260
vt 0.136885 0.373294
vt 0.747188 0.400681
vt 0.727498 0.303806
vt 0.843293 0.295695
vt 0.052556 0.419588
vt 0.000000 0.431720
vt 0.312352 0.401002
vt 0.383695 0.423378
vt 0.679352 0.379939
vt 0.656547 0.457529
vt 0.947735 0.482474
vt 0.949817 0.397305
vt 1.000000 0.445114
vt 0.478751 0.506586
vt 0.850341 0.520581
vt 0.840121 0.390048
vt 0.726503 0.484885
vt 0.799748 0.474997
vt 0.757642 0.555813
vt 0.573609 0.472745
vt 0.652484 0.546944
vt 0.529033 0.579859
vt 0.801734 0.610170
vt 0.902402 0.593990
vt 0.717701 0.638993
vt 0.302076 0.581317
vt 0.363370 0.623101
vt 0.333424 0.682384
vt 0.384046 0.535537
vt 0.442256 0.591928
vt 0.784574 0.680436
vt 0.713718 0.737426
vt 0.217927 0.637966
vt 0.133209 0.752321
vt 0.141448 0.616435
vt 0.563375 0.671260
vt 0.659090 0.690462
vt 0.592765 0.773363
vt 0.311697 0.774400
vt 0.262436 0.725542
vt 0.183805 0.844559
vt 0.636109 0.863794
vt 0.551644 0.853965
vt 0.860723 0.818002
vt 0.939735 0.833219
vt 0.868939 0.936484
vt 0.227603 0.922045
vt 0.249955 0.829416
vt 0.384451 0.899450
vt 0.365331 0.831053
vt 0.471751 0.817056
vt 0.320067 0.886118
vt 0.287452 0.960233
vt 0.594575 0.949612
vt 0.529435 0.922304
vt 0.791843 0.968144
vt 0.774934 0.895132
vt 0.388849 0.972000
vt 0.455522 0.923507
vt 0.379925 1.000000
vt 0.494442 1.000000
vt 0.184901 0.978053
vt 0.103362 0.983960
vt 0.117522 0.916175
vt 0.096741 1.000000
vt 0.195801 1.000000
vt 0.285889 1.000000
vt 0.506137 1.000000
vt 0.726828 0.038056
vt 0.621704 0.000000
vt 0.739685 0.000000
vt 0.855225 0.000000
vt 1.000000 0.097188
vt 0.974831 0.081604
vt 1.000000 0.000000
vt 0.975065 0.580843
vt 1.000000 0.555997
vt 0.972252 0.917084
vt 1.000000 0.867493
vt 0.848633 1.000000
vt 0.928783 0.976560
vt 1.000000 1.000000
vt 0.722839 1.000000
vt 0.626099 1.000000
vt 0.686650 0.945525
vt 0.000000 0.736755
vt 0.027928 0.766869
vt 0.000000 0.839111
vt 0.000000 0.660034
vt 0.050892 0.646669
vt 0.000000 0.587646
vt 0.000000 0.066772
vt 0.382176 0.028126
vt 0.378100 0.130893
vt 0.230716 0.188018
vt 0.468775 0.150421
vt 0.975414 0.175910
vt 0.614818 0.174927
vt 0.721104 0.208926
vt 0.125626 0.236558
vt 0.954988 0.320991
vt 1.000000 0.366381
vt 0.423377 0.314450
vt 0.517954 0.427019
vt 0.157405 0.445480
vt 0.282488 0.465103
vt 0.189985 0.524895
vt 0.109232 0.532754
vt 1.000000 0.499924
vt 0.000000 0.505785
vt 0.626854 0.612487
vt 0.406890 0.685054
vt 0.478838 0.721270
vt 0.378284 0.757627
vt 0.856051 0.704396
vt 0.775869 0.774723
vt 0.952845 0.740257
vt 0.713182 0.845629
vt 0.088383 0.831944
vt 0.020725 0.887646
vt 0.934937 0.000000
vt 0.942609 0.665094
vt 1.000000 0.641113
vt 1.000000 0.710327
vt 1.000000 0.785767
vt 0.000000 0.495406
vt 0.000000 1.000000
vt 0.000000 0.000000
vt 0.000000 0.932007
vn 0.0000 1.0000 0.0000
usemtl None
s off
f 35/1/1 9/2/1 61/3/1
f 36/4/1 9/2/1 35/1/1
f 37/5/1 9/2/1 36/4/1
f 38/6/1 10/7/1 37/5/1
f 2/8/1 60/9/1 63/10/1
f 65/11/1 10/7/1 117/12/1
f 158/13/1 67/14/1 114/15/1
f 66/16/1 64/17/1 157/18/1
f 62/19/1 61/3/1 119/20/1
f 61/3/1 65/11/1 12/21/1
f 32/22/1 124/23/1 31/24/1
f 67/14/1 122/25/1 118/26/1
f 31/24/1 124/23/1 30/27/1
f 14/28/1 72/29/1 4/30/1
f 120/31/1 121/32/1 125/33/1
f 77/34/1 124/23/1 75/35/1
f 127/36/1 74/37/1 125/33/1
f 13/38/1 129/39/1 162/40/1
f 70/41/1 16/42/1 129/39/1
f 74/37/1 126/43/1 75/35/1
f 130/44/1 15/45/1 123/46/1
f 77/34/1 126/43/1 81/47/1
f 30/27/1 81/47/1 29/48/1
f 125/33/1 79/49/1 127/36/1
f 79/49/1 125/33/1 128/50/1
f 78/51/1 82/52/1 129/39/1
f 19/53/1 80/54/1 45/55/1
f 162/40/1 84/56/1 128/50/1
f 19/53/1 20/57/1 131/58/1
f 85/59/1 133/60/1 87/61/1
f 169/62/1 86/63/1 89/64/1
f 87/61/1 86/63/1 85/59/1
f 91/65/1 20/57/1 170/66/1
f 140/67/1 86/63/1 87/61/1
f 137/68/1 138/69/1 94/70/1
f 83/71/1 88/72/1 138/69/1
f 144/73/1 140/67/1 91/65/1
f 140/67/1 144/73/1 97/74/1
f 163/75/1 146/76/1 90/77/1
f 139/78/1 143/79/1 98/80/1
f 94/70/1 101/81/1 96/82/1
f 96/82/1 148/83/1 146/76/1
f 104/84/1 107/85/1 98/80/1
f 147/86/1 105/87/1 152/88/1
f 155/89/1 148/83/1 99/90/1
f 151/91/1 102/92/1 149/93/1
f 106/94/1 165/95/1 99/90/1
f 153/96/1 110/97/1 107/85/1
f 152/88/1 156/98/1 22/99/1
f 111/100/1 151/91/1 112/101/1
f 165/95/1 111/100/1 8/102/1
f 111/100/1 112/101/1 7/103/1
f 166/104/1 113/105/1 171/106/1
f 57/107/1 166/104/1 56/108/1
f 56/108/1 165/95/1 55/109/1
f 8/102/1 111/100/1 7/103/1
f 112/101/1 54/110/1 7/103/1
f 59/111/1 39/112/1 3/113/1
f 158/13/1 114/15/1 40/114/1
f 43/115/1 11/116/1 42/117/1
f 159/118/1 19/53/1 47/119/1
f 109/120/1 105/87/1 5/121/1
f 52/122/1 160/123/1 51/124/1
f 6/125/1 156/98/1 52/122/1
f 53/126/1 154/127/1 6/125/1
f 54/110/1 153/96/1 53/126/1
f 25/128/1 161/129/1 24/130/1
f 26/131/1 92/132/1 25/128/1
f 27/133/1 92/132/1 26/131/1
f 33/134/1 62/19/1 32/22/1
f 115/135/1 38/6/1 2/8/1
f 63/10/1 115/135/1 2/8/1
f 157/18/1 59/111/1 66/16/1
f 42/117/1 11/116/1 158/13/1
f 68/136/1 115/135/1 63/10/1
f 68/136/1 117/12/1 115/135/1
f 118/26/1 59/111/1 114/15/1
f 114/15/1 67/14/1 118/26/1
f 168/137/1 65/11/1 117/12/1
f 168/137/1 12/21/1 65/11/1
f 68/136/1 116/138/1 121/32/1
f 43/115/1 71/139/1 11/116/1
f 71/139/1 43/115/1 4/30/1
f 69/140/1 116/138/1 64/17/1
f 69/140/1 13/38/1 116/138/1
f 118/26/1 122/25/1 167/141/1
f 72/29/1 71/139/1 4/30/1
f 67/14/1 72/29/1 122/25/1
f 73/142/1 119/20/1 12/21/1
f 168/137/1 73/142/1 12/21/1
f 74/37/1 73/142/1 168/137/1
f 123/46/1 15/45/1 122/25/1
f 72/29/1 123/46/1 122/25/1
f 74/37/1 120/31/1 125/33/1
f 78/51/1 16/42/1 15/45/1
f 17/143/1 14/28/1 44/144/1
f 76/145/1 128/50/1 125/33/1
f 131/58/1 130/44/1 123/46/1
f 77/34/1 81/47/1 30/27/1
f 13/38/1 162/40/1 76/145/1
f 162/40/1 128/50/1 76/145/1
f 169/62/1 132/146/1 129/39/1
f 16/42/1 78/51/1 129/39/1
f 82/52/1 169/62/1 129/39/1
f 131/58/1 133/60/1 130/44/1
f 18/147/1 134/148/1 135/149/1
f 136/150/1 81/47/1 18/147/1
f 18/147/1 135/149/1 136/150/1
f 20/57/1 133/60/1 131/58/1
f 83/71/1 137/68/1 134/148/1
f 87/61/1 133/60/1 20/57/1
f 19/53/1 46/151/1 47/119/1
f 136/150/1 28/152/1 81/47/1
f 134/148/1 137/68/1 135/149/1
f 84/56/1 169/62/1 89/64/1
f 159/118/1 170/66/1 19/53/1
f 93/153/1 89/64/1 86/63/1
f 93/153/1 86/63/1 140/67/1
f 139/78/1 88/72/1 89/64/1
f 88/72/1 164/154/1 138/69/1
f 164/154/1 94/70/1 138/69/1
f 140/67/1 97/74/1 143/79/1
f 146/76/1 92/132/1 90/77/1
f 142/155/1 164/154/1 88/72/1
f 163/75/1 96/82/1 146/76/1
f 94/70/1 164/154/1 145/156/1
f 95/157/1 21/158/1 144/73/1
f 145/156/1 101/81/1 94/70/1
f 147/86/1 95/157/1 100/159/1
f 145/156/1 149/93/1 102/92/1
f 98/80/1 97/74/1 150/160/1
f 145/156/1 102/92/1 101/81/1
f 99/90/1 101/81/1 102/92/1
f 161/129/1 103/161/1 108/162/1
f 107/85/1 149/93/1 98/80/1
f 147/86/1 22/99/1 21/158/1
f 112/101/1 107/85/1 110/97/1
f 22/99/1 147/86/1 152/88/1
f 149/93/1 112/101/1 151/91/1
f 165/95/1 155/89/1 99/90/1
f 165/95/1 106/94/1 151/91/1
f 105/87/1 109/120/1 152/88/1
f 152/88/1 109/120/1 160/123/1
f 155/89/1 171/106/1 148/83/1
f 155/89/1 165/95/1 166/104/1
f 54/110/1 110/97/1 153/96/1
f 156/98/1 154/127/1 22/99/1
f 157/18/1 60/9/1 39/112/1
f 114/15/1 3/113/1 40/114/1
f 41/163/1 158/13/1 40/114/1
f 141/164/1 48/165/1 49/166/1
f 100/159/1 49/166/1 50/167/1
f 105/87/1 50/167/1 5/121/1
f 109/120/1 5/121/1 51/124/1
f 160/123/1 109/120/1 51/124/1
f 156/98/1 152/88/1 52/122/1
f 10/7/1 9/2/1 37/5/1
f 38/6/1 115/135/1 10/7/1
f 64/17/1 60/9/1 157/18/1
f 67/14/1 158/13/1 11/116/1
f 117/12/1 10/7/1 115/135/1
f 59/111/1 118/26/1 66/16/1
f 62/19/1 119/20/1 32/22/1
f 61/3/1 12/21/1 119/20/1
f 11/116/1 71/139/1 67/14/1
f 32/22/1 119/20/1 124/23/1
f 73/142/1 124/23/1 119/20/1
f 121/32/1 120/31/1 68/136/1
f 13/38/1 70/41/1 129/39/1
f 70/41/1 15/45/1 16/42/1
f 123/46/1 72/29/1 17/143/1
f 124/23/1 77/34/1 30/27/1
f 130/44/1 78/51/1 15/45/1
f 132/146/1 162/40/1 129/39/1
f 81/47/1 126/43/1 18/147/1
f 128/50/1 83/71/1 134/148/1
f 82/52/1 86/63/1 169/62/1
f 1/168/1 81/47/1 28/152/1
f 90/77/1 136/150/1 135/149/1
f 135/149/1 137/68/1 163/75/1
f 84/56/1 88/72/1 83/71/1
f 136/150/1 92/132/1 28/152/1
f 163/75/1 90/77/1 135/149/1
f 95/157/1 170/66/1 141/164/1
f 139/78/1 93/153/1 143/79/1
f 163/75/1 94/70/1 96/82/1
f 145/156/1 164/154/1 142/155/1
f 100/159/1 95/157/1 141/164/1
f 97/74/1 98/80/1 143/79/1
f 161/129/1 146/76/1 103/161/1
f 148/83/1 96/82/1 99/90/1
f 98/80/1 149/93/1 142/155/1
f 100/159/1 105/87/1 147/86/1
f 112/101/1 149/93/1 107/85/1
f 150/160/1 104/84/1 98/80/1
f 150/160/1 21/158/1 22/99/1
f 106/94/1 102/92/1 151/91/1
f 104/84/1 153/96/1 107/85/1
f 150/160/1 154/127/1 104/84/1
f 22/99/1 154/127/1 150/160/1
f 111/100/1 165/95/1 151/91/1
f 58/169/1 171/106/1 113/105/1
f 166/104/1 171/106/1 155/89/1
f 57/107/1 113/105/1 166/104/1
f 56/108/1 166/104/1 165/95/1
f 8/102/1 55/109/1 165/95/1
f 61/3/1 34/170/1 35/1/1
f 39/112/1 59/111/1 157/18/1
f 41/163/1 42/117/1 158/13/1
f 44/144/1 80/54/1 17/143/1
f 52/122/1 152/88/1 160/123/1
f 53/126/1 153/96/1 154/127/1
f 23/171/1 108/162/1 58/169/1
f 23/171/1 24/130/1 108/162/1
f 161/129/1 108/162/1 24/130/1
f 25/128/1 92/132/1 161/129/1
f 27/133/1 28/152/1 92/132/1
f 33/134/1 34/170/1 62/19/1
f 34/170/1 61/3/1 62/19/1
f 10/7/1 65/11/1 9/2/1
f 65/11/1 61/3/1 9/2/1
f 116/138/1 63/10/1 64/17/1
f 63/10/1 60/9/1 64/17/1
f 116/138/1 68/136/1 63/10/1
f 66/16/1 69/140/1 64/17/1
f 120/31/1 168/137/1 117/12/1
f 167/141/1 66/16/1 118/26/1
f 66/16/1 167/141/1 69/140/1
f 67/14/1 71/139/1 72/29/1
f 68/136/1 120/31/1 117/12/1
f 13/38/1 121/32/1 116/138/1
f 70/41/1 13/38/1 69/140/1
f 74/37/1 168/137/1 120/31/1
f 69/140/1 167/141/1 70/41/1
f 167/141/1 15/45/1 70/41/1
f 76/145/1 125/33/1 121/32/1
f 122/25/1 15/45/1 167/141/1
f 73/142/1 74/37/1 75/35/1
f 17/143/1 72/29/1 14/28/1
f 75/35/1 124/23/1 73/142/1
f 76/145/1 121/32/1 13/38/1
f 75/35/1 126/43/1 77/34/1
f 17/143/1 80/54/1 123/46/1
f 123/46/1 80/54/1 131/58/1
f 74/37/1 127/36/1 126/43/1
f 127/36/1 18/147/1 126/43/1
f 134/148/1 127/36/1 79/49/1
f 44/144/1 45/55/1 80/54/1
f 134/148/1 18/147/1 127/36/1
f 128/50/1 134/148/1 79/49/1
f 78/51/1 130/44/1 82/52/1
f 82/52/1 130/44/1 85/59/1
f 85/59/1 130/44/1 133/60/1
f 80/54/1 19/53/1 131/58/1
f 132/146/1 84/56/1 162/40/1
f 132/146/1 169/62/1 84/56/1
f 83/71/1 128/50/1 84/56/1
f 82/52/1 85/59/1 86/63/1
f 89/64/1 88/72/1 84/56/1
f 20/57/1 19/53/1 170/66/1
f 137/68/1 83/71/1 138/69/1
f 87/61/1 20/57/1 91/65/1
f 139/78/1 89/64/1 93/153/1
f 92/132/1 136/150/1 90/77/1
f 91/65/1 140/67/1 87/61/1
f 141/164/1 170/66/1 159/118/1
f 163/75/1 137/68/1 94/70/1
f 91/65/1 170/66/1 95/157/1
f 88/72/1 139/78/1 142/155/1
f 140/67/1 143/79/1 93/153/1
f 95/157/1 144/73/1 91/65/1
f 146/76/1 161/129/1 92/132/1
f 98/80/1 142/155/1 139/78/1
f 144/73/1 21/158/1 97/74/1
f 101/81/1 99/90/1 96/82/1
f 142/155/1 149/93/1 145/156/1
f 95/157/1 147/86/1 21/158/1
f 21/158/1 150/160/1 97/74/1
f 148/83/1 103/161/1 146/76/1
f 171/106/1 103/161/1 148/83/1
f 99/90/1 102/92/1 106/94/1
f 171/106/1 108/162/1 103/161/1
f 171/106/1 58/169/1 108/162/1
f 153/96/1 104/84/1 154/127/1
f 54/110/1 112/101/1 110/97/1
f 114/15/1 59/111/1 3/113/1
f 45/55/1 46/151/1 19/53/1
f 47/119/1 48/165/1 159/118/1
f 141/164/1 159/118/1 48/165/1
f 49/166/1 100/159/1 141/164/1
f 105/87/1 100/159/1 50/167/1
f 6/125/1 154/127/1 156/98/1
f 58/169/1 113/105/1 57/107/1
f 81/47/1 1/168/1 29/48/1
